<svg xmlns="http://www.w3.org/2000/svg" width="512" height="512" viewBox="0 0 144 144" shape-rendering="crispEdges">
  <rect width="144" height="144" rx="24" fill="#FFF3D5"/>
  <rect x="6" y="6" width="132" height="132" rx="19" fill="#CDEEDC"/>

  <rect x="112" y="18" width="12" height="12" fill="#FFD45E"/>
  <rect x="116" y="14" width="4" height="4" fill="#FFD45E"/>
  <rect x="116" y="30" width="4" height="4" fill="#FFD45E"/>
  <rect x="108" y="22" width="4" height="4" fill="#FFD45E"/>
  <rect x="124" y="22" width="4" height="4" fill="#FFD45E"/>

  <rect x="6" y="90" width="132" height="48" fill="#74C96B"/>
  <rect x="6" y="96" width="132" height="42" fill="#66B95F"/>
  <rect x="14" y="86" width="116" height="8" fill="#E8BD7A"/>
  <rect x="18" y="82" width="8" height="20" fill="#9A6849"/>
  <rect x="42" y="82" width="8" height="20" fill="#9A6849"/>
  <rect x="94" y="82" width="8" height="20" fill="#9A6849"/>
  <rect x="118" y="82" width="8" height="20" fill="#9A6849"/>
  <rect x="14" y="88" width="116" height="4" fill="#70483B"/>

  <rect x="33" y="55" width="78" height="48" fill="#F5C97F"/>
  <rect x="38" y="60" width="68" height="43" fill="#FFD99A"/>
  <polygon points="26,58 72,25 118,58" fill="#67423A"/>
  <polygon points="32,55 72,30 112,55" fill="#E97791"/>
  <rect x="42" y="45" width="60" height="7" fill="#F38DA4"/>
  <rect x="48" y="38" width="48" height="7" fill="#F38DA4"/>
  <rect x="66" y="32" width="12" height="6" fill="#F6A2B3"/>

  <rect x="67" y="67" width="18" height="36" fill="#69443D"/>
  <rect x="71" y="71" width="10" height="32" fill="#8D5A4A"/>
  <rect x="77" y="85" width="3" height="3" fill="#FFD45E"/>
  <rect x="43" y="66" width="16" height="17" fill="#68423A"/>
  <rect x="47" y="70" width="8" height="9" fill="#A8DCF0"/>
  <rect x="93" y="66" width="16" height="17" fill="#68423A"/>
  <rect x="97" y="70" width="8" height="9" fill="#A8DCF0"/>
  <rect x="43" y="72" width="16" height="3" fill="#FFF2C2"/>
  <rect x="50" y="66" width="3" height="17" fill="#FFF2C2"/>
  <rect x="93" y="72" width="16" height="3" fill="#FFF2C2"/>
  <rect x="100" y="66" width="3" height="17" fill="#FFF2C2"/>

  <rect x="64" y="17" width="8" height="8" fill="#EB5B78"/>
  <rect x="76" y="17" width="8" height="8" fill="#EB5B78"/>
  <rect x="60" y="21" width="28" height="8" fill="#EB5B78"/>
  <rect x="64" y="29" width="20" height="4" fill="#EB5B78"/>
  <rect x="68" y="33" width="12" height="4" fill="#EB5B78"/>

  <g stroke="#5D4038" stroke-width="3" stroke-linejoin="miter">
    <path d="M22 111h5v-5h15v3h7v12h-4v7H25v-4h-5v-10h2z" fill="#FFF9E9"/>
    <path d="M39 109h8v6h-8z" fill="#F0A630" stroke="none"/>
    <path d="M27 104h5v-5h6v7h-11z" fill="#E65A62" stroke="none"/>
    <rect x="35" y="109" width="3" height="3" fill="#46342F" stroke="none"/>

    <path d="M95 109h5v-5h15v4h7v13h-5v7H98v-4h-6v-11h3z" fill="#FFF9E9"/>
    <path d="M115 110h8v6h-8z" fill="#F0A630" stroke="none"/>
    <path d="M100 102h5v-5h6v7h-11z" fill="#E65A62" stroke="none"/>
    <rect x="109" y="109" width="3" height="3" fill="#46342F" stroke="none"/>
  </g>

  <rect x="55" y="119" width="5" height="5" fill="#FFE36C"/>
  <rect x="60" y="114" width="5" height="5" fill="#FF8FB3"/>
  <rect x="82" y="117" width="5" height="5" fill="#A788E8"/>
  <rect x="87" y="112" width="5" height="5" fill="#FFF4A1"/>
  <rect x="67" y="126" width="10" height="4" fill="#EAD08B"/>
  <rect x="77" y="122" width="10" height="4" fill="#EAD08B"/>
</svg>
